<?xml version="1.0" standalone="no"?><svg xmlns="http://www.w3.org/2000/svg" viewBox="0 0 1440 320"><path fill="#eff4fd" fill-opacity="1" d="M0,256L34.3,234.7C68.6,213,137,171,206,165.3C274.3,160,343,192,411,208C480,224,549,224,617,213.3C685.7,203,754,181,823,165.3C891.4,149,960,139,1029,149.3C1097.1,160,1166,192,1234,208C1302.9,224,1371,224,1406,224L1440,224L1440,320L1405.7,320C1371.4,320,1303,320,1234,320C1165.7,320,1097,320,1029,320C960,320,891,320,823,320C754.3,320,686,320,617,320C548.6,320,480,320,411,320C342.9,320,274,320,206,320C137.1,320,69,320,34,320L0,320Z"></path></svg>